<svg xmlns="http://www.w3.org/2000/svg" viewBox="0 0 512 512" width="100%" height="100%">
  <path d="M509.3 227.6L284.4 2.7c-3.6-3.6-9.4-3.6-13 0L249 25.1c-3.6 3.6-3.6 9.4 0 13l37 37-133 133c-11.3-7.1-26.2-5-35.1 4.9-9.9 9.9-12 24.8-4.9 36.1L49.1 313.1c-11.3-7.1-26.2-5-35.1 4.9-11.7 11.7-11.7 30.7 0 42.4L98.4 445c11.7 11.7 30.7 11.7 42.4 0 9.9-9.9 12-24.8 4.9-36.1l63.9-63.9c11.3 7.1 26.2 5 35.1-4.9 9.9-9.9 12-24.8 4.9-36.1l133-133 37 37c3.6 3.6 9.4 3.6 13 0l22.4-22.4c3.6-3.6 3.6-9.4 0-13z" fill="#F05032"/>
  <circle cx="349.5" cy="162.5" r="30" fill="#FFF"/>
  <circle cx="162.5" cy="349.5" r="30" fill="#FFF"/>
  <circle cx="162.5" cy="162.5" r="30" fill="#FFF"/>
  <path d="M162.5 162.5v187M162.5 256l131-131" stroke="#FFF" stroke-width="20" fill="none"/>
</svg>
