<svg xmlns="http://www.w3.org/2000/svg" viewBox="0 0 262 284" width="100%" height="100%">
  <path d="M251.2 68.3L144.3 6.8c-7.9-4.5-17.7-4.5-25.6 0L11.8 68.3C3.9 72.8-1 81.3-1 90.3v103.4c0 9 4.9 17.5 12.8 22l106.9 61.5c7.9 4.5 17.7 4.5 25.6 0l106.9-61.5c7.9-4.5 12.8-13 12.8-22V90.3c.1-9-4.8-17.5-12.7-22z" fill="#FF2D20"/>
  <path d="M131.5 53.7V230c0 2 .8 3.9 2.3 5.3l12.7 12.7c1.4 1.4 3.3 2.2 5.3 2.2h86.7c4.1 0 7.5-3.4 7.5-7.5v-31.5c0-4.1-3.4-7.5-7.5-7.5h-50.2V53.7c0-4.1-3.4-7.5-7.5-7.5H139c-4.1 0-7.5 3.4-7.5 7.5zm-81.5 48v85c0 2-.8 3.9-2.3 5.3L35 204.7c-1.4 1.4-3.3 2.2-5.3 2.2H17c-4.1 0-7.5-3.4-7.5-7.5v-15c0-4.1 3.4-7.5 7.5-7.5h7.5V101.7c0-4.1-3.4-7.5-7.5-7.5H7.5C3.4 94.2 0 90.8 0 86.7v-15c0-4.1 3.4-7.5 7.5-7.5h17.3c2 0 3.9.8 5.3 2.3l12.7 12.7c1.4 1.4 2.2 3.3 2.2 5.3z" fill="#FFF"/>
</svg>
